<svg width="1600" height="900" viewBox="0 0 1600 900" xmlns="http://www.w3.org/2000/svg" role="img" aria-label="Istanbul city and courier">
  <defs>
    <linearGradient id="sky" x1="0" y1="0" x2="0" y2="1">
      <stop offset="0%" stop-color="#2b2b30"/>
      <stop offset="100%" stop-color="#0a0a0c"/>
    </linearGradient>
  </defs>
  <rect width="1600" height="900" fill="url(#sky)"/>
  <g opacity="0.45" fill="#facc15">
    <circle cx="1280" cy="190" r="120"/>
  </g>
  <g fill="#16161a">
    <rect x="0" y="520" width="80" height="230"/>
    <rect x="90" y="480" width="95" height="270"/>
    <rect x="200" y="460" width="120" height="290"/>
    <rect x="335" y="510" width="90" height="240"/>
    <rect x="435" y="430" width="140" height="320"/>
    <rect x="590" y="500" width="110" height="250"/>
    <rect x="710" y="450" width="130" height="300"/>
    <rect x="855" y="490" width="100" height="260"/>
    <rect x="965" y="420" width="140" height="330"/>
    <rect x="1120" y="510" width="90" height="240"/>
    <rect x="1220" y="470" width="110" height="280"/>
    <rect x="1340" y="445" width="120" height="305"/>
    <rect x="1470" y="520" width="130" height="230"/>
  </g>
  <g transform="translate(780 610)">
    <rect x="-170" y="40" width="300" height="22" fill="#facc15" opacity="0.7"/>
    <circle cx="-120" cy="80" r="26" fill="#facc15"/>
    <circle cx="70" cy="80" r="26" fill="#facc15"/>
    <rect x="-80" y="5" width="100" height="40" rx="8" fill="#facc15"/>
    <rect x="-45" y="-35" width="70" height="40" rx="8" fill="#facc15"/>
    <circle cx="-10" cy="-45" r="13" fill="#facc15"/>
    <rect x="-5" y="-15" width="30" height="36" rx="6" fill="#facc15"/>
  </g>
</svg>
